<svg xmlns="http://www.w3.org/2000/svg" xmlns:xlink="http://www.w3.org/1999/xlink" width="500" zoomAndPan="magnify" viewBox="0 0 375 374.999991" height="500" preserveAspectRatio="xMidYMid meet" version="1.0"><defs><g/></defs><path stroke-linecap="round" transform="matrix(0.75, 0, 0, 0.75, 113.805436, 156.268833)" fill="#FFFFFF" stroke-linejoin="miter" d="M 10.499002 10.500932 L 134.207344 10.500932 " stroke="#000000" stroke-width="21" stroke-opacity="1" stroke-miterlimit="4"/><path stroke-linecap="round" transform="matrix(0.75, 0, 0, 0.75, 163.227049, 129.244547)" fill="none" stroke-linejoin="miter" d="M 10.499352 10.502063 L 68.311856 10.502063 " stroke="#000000" stroke-width="21" stroke-opacity="1" stroke-miterlimit="4"/><path stroke-linecap="round" transform="matrix(0, -0.75, 0.75, 0, 231.39957, 204.495383)" fill="none" stroke-linejoin="miter" d="M 10.499052 10.498491 L 120.848018 10.498491 " stroke="#000000" stroke-width="21" stroke-opacity="1" stroke-miterlimit="4"/><path stroke-linecap="round" transform="matrix(0.75, 0, 0, 0.75, 163.227049, 183.293117)" fill="none" stroke-linejoin="miter" d="M 10.499352 10.499803 L 68.311856 10.499803 " stroke="#000000" stroke-width="21" stroke-opacity="1" stroke-miterlimit="4"/><path stroke-linecap="round" transform="matrix(0.607588, -0.4397, 0.4397, 0.607588, 231.174424, 194.476276)" fill="none" stroke-linejoin="miter" d="M 10.501636 10.499834 L 198.442559 10.501394 " stroke="#000000" stroke-width="21" stroke-opacity="1" stroke-miterlimit="4"/><g fill="#000000" fill-opacity="1"><g transform="translate(64.610385, 259.592232)"><g><path d="M 3.828125 0 L 3.828125 -33.46875 L 50.484375 -33.46875 C 52.367188 -33.46875 54.039062 -33.046875 55.5 -32.203125 C 56.96875 -31.359375 58.125 -30.203125 58.96875 -28.734375 C 59.820312 -27.265625 60.25 -25.59375 60.25 -23.71875 C 60.25 -21.832031 59.820312 -20.15625 58.96875 -18.6875 C 58.125 -17.226562 56.96875 -16.078125 55.5 -15.234375 C 54.039062 -14.390625 52.367188 -13.96875 50.484375 -13.96875 L 9.375 -13.96875 L 9.375 0 Z M 9.375 -19.5 L 50.484375 -19.5 C 51.703125 -19.5 52.707031 -19.90625 53.5 -20.71875 C 54.300781 -21.539062 54.703125 -22.539062 54.703125 -23.71875 C 54.703125 -24.925781 54.300781 -25.925781 53.5 -26.71875 C 52.707031 -27.519531 51.703125 -27.921875 50.484375 -27.921875 L 9.375 -27.921875 Z M 9.375 -19.5 "/></g></g></g><g fill="#000000" fill-opacity="1"><g transform="translate(128.678778, 259.592232)"><g><path d="M 3.828125 0 L 3.828125 -33.46875 L 50.484375 -33.46875 C 52.367188 -33.46875 54.039062 -33.046875 55.5 -32.203125 C 56.96875 -31.359375 58.125 -30.203125 58.96875 -28.734375 C 59.820312 -27.265625 60.25 -25.59375 60.25 -23.71875 C 60.25 -21.769531 59.789062 -20.035156 58.875 -18.515625 C 57.96875 -17.003906 56.75 -15.851562 55.21875 -15.0625 C 56.8125 -13.59375 58.046875 -11.804688 58.921875 -9.703125 C 59.804688 -7.597656 60.25 -5.285156 60.25 -2.765625 L 60.25 0 L 54.703125 0 L 54.703125 -2.765625 C 54.703125 -4.941406 54.210938 -6.863281 53.234375 -8.53125 C 52.265625 -10.207031 50.941406 -11.53125 49.265625 -12.5 C 47.597656 -13.476562 45.679688 -13.96875 43.515625 -13.96875 L 9.375 -13.96875 L 9.375 0 Z M 9.375 -19.5 L 50.484375 -19.5 C 51.703125 -19.5 52.707031 -19.90625 53.5 -20.71875 C 54.300781 -21.539062 54.703125 -22.539062 54.703125 -23.71875 C 54.703125 -24.925781 54.300781 -25.925781 53.5 -26.71875 C 52.707031 -27.519531 51.703125 -27.921875 50.484375 -27.921875 L 9.375 -27.921875 Z M 9.375 -19.5 "/></g></g></g><g fill="#000000" fill-opacity="1"><g transform="translate(192.747171, 259.592232)"><g><path d="M 50.484375 -33.46875 C 52.367188 -33.46875 54.039062 -33.046875 55.5 -32.203125 C 56.96875 -31.359375 58.125 -30.203125 58.96875 -28.734375 C 59.820312 -27.265625 60.25 -25.59375 60.25 -23.71875 L 60.25 -9.75 C 60.25 -7.875 59.820312 -6.203125 58.96875 -4.734375 C 58.125 -3.265625 56.96875 -2.109375 55.5 -1.265625 C 54.039062 -0.421875 52.367188 0 50.484375 0 L 13.578125 0 C 11.691406 0 10.015625 -0.421875 8.546875 -1.265625 C 7.085938 -2.109375 5.9375 -3.265625 5.09375 -4.734375 C 4.25 -6.203125 3.828125 -7.875 3.828125 -9.75 L 3.828125 -23.71875 C 3.828125 -25.59375 4.25 -27.265625 5.09375 -28.734375 C 5.9375 -30.203125 7.085938 -31.359375 8.546875 -32.203125 C 10.015625 -33.046875 11.691406 -33.46875 13.578125 -33.46875 Z M 9.375 -9.75 C 9.375 -8.570312 9.78125 -7.578125 10.59375 -6.765625 C 11.40625 -5.953125 12.398438 -5.546875 13.578125 -5.546875 L 50.484375 -5.546875 C 51.703125 -5.546875 52.707031 -5.953125 53.5 -6.765625 C 54.300781 -7.578125 54.703125 -8.570312 54.703125 -9.75 L 54.703125 -23.71875 C 54.703125 -24.925781 54.300781 -25.925781 53.5 -26.71875 C 52.707031 -27.519531 51.703125 -27.921875 50.484375 -27.921875 L 13.578125 -27.921875 C 12.398438 -27.921875 11.40625 -27.519531 10.59375 -26.71875 C 9.78125 -25.925781 9.375 -24.925781 9.375 -23.71875 Z M 9.375 -9.75 "/></g></g></g><g fill="#000000" fill-opacity="1"><g transform="translate(256.815564, 259.592232)"><g><path d="M 3.828125 0 L 3.828125 -33.46875 L 50.484375 -33.46875 C 52.367188 -33.46875 54.039062 -33.046875 55.5 -32.203125 C 56.96875 -31.359375 58.125 -30.203125 58.96875 -28.734375 C 59.820312 -27.265625 60.25 -25.59375 60.25 -23.71875 L 60.25 -9.75 C 60.25 -7.875 59.820312 -6.203125 58.96875 -4.734375 C 58.125 -3.265625 56.96875 -2.109375 55.5 -1.265625 C 54.039062 -0.421875 52.367188 0 50.484375 0 Z M 9.375 -5.546875 L 50.484375 -5.546875 C 51.703125 -5.546875 52.707031 -5.953125 53.5 -6.765625 C 54.300781 -7.578125 54.703125 -8.570312 54.703125 -9.75 L 54.703125 -23.71875 C 54.703125 -24.925781 54.300781 -25.925781 53.5 -26.71875 C 52.707031 -27.519531 51.703125 -27.921875 50.484375 -27.921875 L 9.375 -27.921875 Z M 9.375 -5.546875 "/></g></g></g><path stroke-linecap="round" transform="matrix(0, 0.75, -0.75, 0, 153.13079, 108.98658)" fill="none" stroke-linejoin="miter" d="M 10.502269 10.502512 L 120.851235 10.502512 " stroke="#000000" stroke-width="21" stroke-opacity="1" stroke-miterlimit="4"/><path stroke-linecap="round" transform="matrix(0.617275, -0.425994, 0.425994, 0.617275, 7.638717, 198.013624)" fill="none" stroke-linejoin="miter" d="M 10.499737 10.50203 L 216.432774 10.501631 " stroke="#000000" stroke-width="21" stroke-opacity="1" stroke-miterlimit="4"/></svg>